<!DOCTYPE svg PUBLIC "-//W3C//DTD SVG 1.1//EN" "http://www.w3.org/Graphics/SVG/1.1/DTD/svg11.dtd">
<!-- Uploaded to: SVG Repo, www.svgrepo.com, Transformed by: SVG Repo Mixer Tools -->
<svg version="1.1" id="LOCATION" xmlns="http://www.w3.org/2000/svg" xmlns:xlink="http://www.w3.org/1999/xlink" width="800px" height="800px" viewBox="0 0 1800 1800" enable-background="new 0 0 1800 1800" xml:space="preserve" fill="#000000">
<g id="SVGRepo_bgCarrier" stroke-width="0"/>
<g id="SVGRepo_tracerCarrier" stroke-linecap="round" stroke-linejoin="round"/>
<g id="SVGRepo_iconCarrier"> <g> <g> <path fill="#fdf7f7" d="M899.993,1556.267l441.512-441.511c8.202-7.819,26.127-26.384,26.893-27.184l0.36-0.383 c110.946-118.997,172.046-274.141,172.046-436.851c0-353.342-287.463-640.805-640.803-640.805 c-353.342,0-640.805,287.463-640.805,640.805c0,162.714,61.1,317.857,172.038,436.851L899.993,1556.267z M900.001,71.159 c319.355,0,579.179,259.818,579.179,579.18c0,146.968-55.159,287.114-155.315,394.639c-5.202,5.387-19.292,19.873-25.095,25.383 L900.006,1469.1l-424.049-424.315C375.902,937.286,320.82,797.229,320.82,650.339C320.82,330.977,580.634,71.159,900.001,71.159z"/> </g> <g> <path fill="#fdf7f7" d="M998.745,225.279c110.577,0,325.781,120.91,325.781,342.553c0,17.018,13.789,30.812,30.812,30.812 c17.014,0,30.812-13.794,30.812-30.812c0-115.37-50.989-222.331-143.563-301.184c-73.464-62.566-169.175-102.994-243.842-102.994 c-17.014,0-30.812,13.794-30.812,30.813S981.731,225.279,998.745,225.279z"/> </g> <g> <path fill="#fdf7f7" d="M1286.716,1361.056c-24.003-9.809-49.854-18.548-77.134-26.264l-50.474,50.478 c148.765,35.502,240.488,98.79,240.488,157.599c0,87.962-205.171,185.974-499.596,185.974 c-294.417,0-499.597-98.012-499.597-185.974c0-58.805,91.723-122.097,240.488-157.599l-50.478-50.478 c-27.271,7.716-53.126,16.455-77.121,26.264c-112.537,45.995-174.513,110.563-174.513,181.813s61.977,135.817,174.513,181.813 c103.793,42.422,241.128,65.785,386.708,65.785c145.582,0,282.921-23.363,386.715-65.785 c112.536-45.995,174.504-110.563,174.504-181.813S1399.252,1407.051,1286.716,1361.056z"/> </g> <g> <path fill="#fdf7f7" d="M901.771,945.221c-171.172,0-310.434-139.256-310.434-310.425S730.599,324.37,901.771,324.37 c171.172,0,310.434,139.256,310.434,310.425S1072.943,945.221,901.771,945.221z M901.771,385.995 c-137.193,0-248.809,111.612-248.809,248.801s111.616,248.801,248.809,248.801c137.192,0,248.809-111.612,248.809-248.801 S1038.964,385.995,901.771,385.995z"/> </g> </g> </g>
</svg>